<mxfile host="app.diagrams.net" modified="2023-06-04T12:49:32.988Z" agent="Mozilla/5.0 (Windows NT 10.0; Win64; x64) AppleWebKit/537.36 (KHTML, like Gecko) Chrome/114.0.0.0 Safari/537.36 Edg/114.0.1823.37" version="21.3.7" etag="uoD8-a0M3lT7Pr02JNGG" type="github">
  <diagram name="Страница 1" id="TUyQ2fhsOb5Sfwx3eV5q">
    <mxGraphModel>
      <root>
        <mxCell id="0" />
        <mxCell id="1" parent="0" />
      </root>
    </mxGraphModel>
  </diagram>
</mxfile>
